<?xml version="1.0" encoding="utf-8"?>
<!-- Generator: Adobe Illustrator 21.0.0, SVG Export Plug-In . SVG Version: 6.00 Build 0)  -->
<svg version="1.1" id="myLogo" xmlns="http://www.w3.org/2000/svg" xmlns:xlink="http://www.w3.org/1999/xlink" x="0px" y="0px"
	 viewBox="0 0 132.5 132.5" style="enable-background:new 0 0 132.5 132.5;" xml:space="preserve">
<style type="text/css">
	.st0{fill:#FFFFFF;}
	.st1{fill:none;stroke:#FFFFFF;stroke-width:4;stroke-miterlimit:10;}
</style>
<g id="LFilling">
	<path class="st0" d="M8.501,12.979l0-2.225c0-2.716,2.201-4.918,4.917-4.918h12.293c2.856,0,5.171,2.315,5.171,5.171v33.897
		L8.501,12.979z"/>
	<polygon class="st0" points="8.5,48.57 8.5,9.502 30.881,41.428 30.882,48.57 	"/>
	<polygon class="st0" points="8.501,53.713 8.5,46.57 30.882,46.57 30.882,85.64 	"/>
	<polygon class="st0" points="8.5,89.07 8.5,50.002 30.881,81.929 30.882,89.07 	"/>
	<polygon class="st0" points="8.501,94.213 8.5,87.07 30.882,87.07 30.882,126.14 	"/>
	<polygon class="st0" points="14.577,126 8.5,120.738 8.5,87.931 30.881,119.857 30.882,127 	"/>
	<polygon class="st0" points="22.741,104.848 58.341,104.848 29.883,127.229 22.741,127.229 	"/>
	<polygon class="st0" points="25.838,127.229 57.765,104.849 61.438,104.848 61.438,127.229 	"/>
	<polygon class="st0" points="59.438,127.229 59.438,105.019 79,127.229 	"/>
</g>
<g id="NFilling">
	<polygon class="st0" points="38.167,57.235 38.167,18.167 62.721,53.233 	"/>
	<polygon class="st0" points="37.244,55.235 61.799,51.233 61.799,90.302 	"/>
	<polygon class="st0" points="59.799,88.133 59.799,49.064 87.187,88.133 	"/>
	<polygon class="st0" points="58.876,86.133 86.265,86.133 86.265,125.202 	"/>
	<path class="st0" d="M86.907,125.562l-2.643-3.167V83.964l26.333,37.57c1.189,1.696-0.025,4.029-2.096,4.029H86.907z"/>
	<path class="st0" d="M85.561,89.35h27.388v33.55c0,1.703-2.191,2.394-3.168,1L85.561,89.35z"/>
	<polygon class="st0" points="90.125,91.35 90.125,52.282 112.946,86.728 112.947,91.35 	"/>
	<polygon class="st0" points="90.126,55.856 90.125,51.233 112.947,51.233 112.947,90.302 	"/>
	<polygon class="st0" points="90.125,53.225 90.125,14.157 112.946,48.602 112.947,53.225 	"/>
	<path class="st0" d="M90.126,30.543l-0.001-17.905c0-3.71,3.007-6.718,6.717-6.718h9.387c3.71,0,5.717,3.007,5.717,6.717l1,52.351
		L90.126,30.543z"/>
</g>
<path id="L" class="st1" d="M34.7,106.1c-2.8,0-5.1-2.3-5.1-5.1V15v-4.9c0-2.8-2.3-5.1-5.1-5.1h-9.9c-2.8,0-5.1,2.3-5.1,5.1V15v96
	v4.9c0,5.6,4.5,10.1,10.1,10.1h4.9h10.1h41.731l-14-19.9H34.7L34.7,106.1z"/>
<path id="N_1_" class="st1" d="M39.167,47.752v8.483L84.3,120.6l0.6,0.7c2.9,3.5,7.1,5.3,11.4,5.3c0.2,0,0.4,0,0.7,0
	c0.2,0,0.4,0,0.6,0h8.8c2.8,0,5-2.2,5-5V92.1l0,0L110.9,10c0-2.8-2.3-5-5-5h-10c-2.8,0-5,2.3-5,5l0.3,82l0,0v3.6L39.167,21.335
	V47.752z"/>
</svg>
