<?xml version="1.0" encoding="utf-8"?>
<!-- Generator: Adobe Illustrator 21.0.0, SVG Export Plug-In . SVG Version: 6.00 Build 0)  -->
<svg version="1.1" id="Lager_1" xmlns="http://www.w3.org/2000/svg" xmlns:xlink="http://www.w3.org/1999/xlink" x="0px" y="0px"
	 viewBox="0 0 132.5 132.5" style="enable-background:new 0 0 132.5 132.5;" xml:space="preserve">
<style type="text/css">
	.st0{display:none;}
	.st1{display:inline;fill:#993300;}
	.st2{display:inline;}
	.st3{fill:#FFFFFF;}
	.st4{display:inline;fill:#FFFFFF;}
</style>
<g id="Lager_2" class="st0">
	<rect x="-60.2" y="-55.2" class="st1" width="261.2" height="252"/>
</g>
<g id="Lager_1_1_">
	<g>
		<g class="st0">
			<g class="st2">
				<path class="st3" d="M89.7,126.1H24.6c-8.3,0-15-6.7-15-15V15c0-5.5,4.5-10,10-10l0,0c5.5,0,10,4.5,10,10v91h60.1V126.1z"/>
			</g>
			<path class="st4" d="M124.9-5L86.6-4.9l0.2,68.7L74.4,48.5v32.7h-26c16.5,23.5,31.8,45.4,31.8,45.4l0.8,1.1l0.1,0.2
				c4.8,5.6,11.7,8.9,19,8.9c2.9,0,5.9-0.5,8.7-1.5c10-3.6,16.4-12.9,16.4-23.5L124.9-5z"/>
			<path class="st4" d="M105.9,5l-10,0c-2.8,0-5,2.3-5,5l0.3,85.6L31.9,10.9l-0.6-0.7c0,0,0,0,0,0c-2-3.4-6-5.6-10.5-4.8
				c-4.1,0.7-7.5,4.1-8.1,8.2c-0.6,3.4,0.6,6.6,2.8,8.8c0,0,0,0,0,0l68.8,98.3l0.6,0.7c2.9,3.5,7.1,5.3,11.4,5.3
				c1.7,0,3.5-0.3,5.2-0.9c6-2.2,9.8-7.7,9.8-14.1L110.9,10C110.9,7.2,108.7,5,105.9,5z"/>
			<g class="st2">
				<path class="st3" d="M-5.1,112.6l3-103c0-5.5,4.5-10,10-10l17-3c5.5,0,10,4.5,10,10v91C34.9,97.6-5.1,126.4-5.1,112.6z"/>
			</g>
			<g class="st2">
				<path class="st3" d="M34.7,126.1h-15c-5.6,0-10.1-4.5-10.1-10.1V10.1c0-2.8,2.3-5.1,5.1-5.1h9.9c2.8,0,5.1,2.3,5.1,5.1V101
					c0,2.8,2.3,5.1,5.1,5.1l0,0c2.8,0,5.1,2.3,5.1,5.1v9.9C39.7,123.8,37.4,126.1,34.7,126.1z"/>
			</g>
			<path class="st4" d="M111.2,92.1L110.9,10c0-2.8-2.3-5-5-5l-10,0c-2.8,0-5,2.3-5,5l0.3,82l0,0v3.6L31.9,10.9l-0.6-0.7
				c0,0,0,0,0,0c-2-3.4-6-5.6-10.5-4.8c-4.1,0.7-7.5,4.1-8.1,8.2c-0.6,3.4,0.6,6.6,2.8,8.8c0,0,0,0,0,0l68.8,98.3l0.6,0.7
				c2.9,3.5,7.1,5.3,11.4,5.3c0.2,0,0.4,0,0.7,0c0.2,0,0.4,0,0.6,0h8.9c2.8,0,5-2.2,5-5L111.2,92.1L111.2,92.1L111.2,92.1z"/>
		</g>
		<g>
			<path class="st3" d="M34.7,106.1c-2.8,0-5.1-2.3-5.1-5.1V15v-4.9c0-2.8-2.3-5.1-5.1-5.1h-9.9c-2.8,0-5.1,2.3-5.1,5.1V15v96v4.9
				c0,5.6,4.5,10.1,10.1,10.1h4.9h10.1h45.2l-14-20H34.7z"/>
			<path class="st3" d="M34.9,50l49.4,70.6l0.6,0.7c2.9,3.5,7.1,5.3,11.4,5.3c0.2,0,0.4,0,0.7,0c0.2,0,0.4,0,0.6,0h8.9
				c2.8,0,5-2.2,5-5V92.1h-0.1L110.9,10c0-2.8-2.3-5-5-5l-10,0c-2.8,0-5,2.3-5,5l0.3,82l0,0v3.6L34.9,15.1"/>
		</g>
	</g>
</g>
</svg>
